<svg xmlns="http://www.w3.org/2000/svg" xmlns:xlink="http://www.w3.org/1999/xlink" width="640" height="500" viewBox="0 0 640 500">
  <defs>
    <clipPath id="clip-ASSET_Send-Person-Header-Mobile">
      <rect width="640" height="500"/>
    </clipPath>
  </defs>
  <g id="ASSET_Send-Person-Header-Mobile" data-name="ASSET — Send-Person-Header-Mobile" clip-path="url(#clip-ASSET_Send-Person-Header-Mobile)">
    <rect width="640" height="500" fill="#fd0"/>
    <g id="Group_2540" data-name="Group 2540" transform="translate(-22.307 126.214)">
      <path id="Path_5979" data-name="Path 5979" d="M731.081,322.029l-16.5-7.991-5.758,8.836,25.19,15.564,21.606-18.206L750.4,293.286Z" transform="translate(-265.28 -140.538)" fill="#edb0a3"/>
      <path id="Path_5980" data-name="Path 5980" d="M665.545,302.405l9.915,4.293,10.008,7.707,6.72,4.237,19.432,24.4-30.5-18.847-8.218.109,4.2-10.826-9.946-7.264c-2.481-1.774-3.236-2.507-1.944-3.749A.307.307,0,0,1,665.545,302.405Z" transform="translate(-242.885 -145.143)" fill="#edb0a3"/>
      <path id="Path_5981" data-name="Path 5981" d="M666.24,307.236c1.021.746,4.19,2.616,5.129,2.506a24.962,24.962,0,0,0,4.689,4.665Z" transform="translate(-243.72 -147.601)" fill="#e89684"/>
      <circle id="Ellipse_142" data-name="Ellipse 142" cx="1.449" cy="1.449" r="1.449" transform="translate(408.437 167.02)" fill="#e89684"/>
      <path id="Path_5982" data-name="Path 5982" d="M663.109,346.724a7.077,7.077,0,0,0,2.588-.975l-1.137-.859Z" transform="translate(-242.135 -166.664)" fill="#e89684"/>
      <path id="Path_5983" data-name="Path 5983" d="M684.857,331.964s-.594,1.814-.047,2.666c0,0-2.747,1.088-3.378,2.023l-1.458,1.995,7.356-1.482a6.6,6.6,0,0,1,5.192,1.139l1.61,1.177,12.562,11.49-17.242-10.654a6.865,6.865,0,0,0-4.071-1.069l-6,.033-1.988-.749Z" transform="translate(-249.368 -160.12)" fill="#e89684"/>
      <path id="Path_5984" data-name="Path 5984" d="M651.6,336.249a6.372,6.372,0,0,1,.649-.888l.715.522Z" transform="translate(-236.309 -161.84)" fill="#e89684"/>
      <path id="Path_5985" data-name="Path 5985" d="M646.346,332.532a3.09,3.09,0,0,1,.437-1.54l2.493,1.861-.366.688Z" transform="translate(-233.648 -159.628)" fill="#e89684"/>
      <g id="Group_2495" data-name="Group 2495" transform="translate(403.029 151.901)">
        <path id="Path_5986" data-name="Path 5986" d="M637.821,293.666a1.238,1.238,0,0,0-1,.5h0l-7.39,10.119h0a1.239,1.239,0,0,0-.17,1.1,1.489,1.489,0,0,0,.55.764l21.464,15.676a1.936,1.936,0,0,0,2.887-.627l2.058-2.817,2.18-2.985,2.057-2.817a1.937,1.937,0,0,0-.281-2.942l-21.463-15.676A1.485,1.485,0,0,0,637.821,293.666Z" transform="translate(-628.001 -292.632)" fill="gray"/>
        <g id="Group_2494" data-name="Group 2494" transform="translate(0)">
          <rect id="Rectangle_3758" data-name="Rectangle 3758" width="15.092" height="29.947" rx="2.718" transform="matrix(0.59, -0.808, 0.808, 0.59, 0, 12.188)" fill="#fff"/>
          <rect id="Rectangle_3759" data-name="Rectangle 3759" width="14.229" height="25.343" rx="2.357" transform="matrix(0.59, -0.808, 0.808, 0.59, 2.15, 13.224)" fill="#404040"/>
          <rect id="Rectangle_3760" data-name="Rectangle 3760" width="5.881" height="0.361" rx="0.181" transform="matrix(0.59, -0.808, 0.808, 0.59, 3.118, 8.761)" fill="#cccbcb"/>
          <ellipse id="Ellipse_143" data-name="Ellipse 143" cx="0.303" cy="0.332" rx="0.303" ry="0.332" transform="matrix(0.59, -0.808, 0.808, 0.59, 1.424, 11.693)"/>
          <path id="Path_5987" data-name="Path 5987" d="M682.273,335.757c.152.1.3.2.449.3a.568.568,0,0,1,.2.2.445.445,0,0,1,.054.281.411.411,0,0,1-.048.141c-.027.045-.053.075-.079.114l-.157.219-.315.438-.321.433-.161.217c-.029.037-.05.071-.084.11a.393.393,0,0,1-.119.089.445.445,0,0,1-.285.034.563.563,0,0,1-.247-.13c-.141-.113-.283-.222-.422-.337.152.1.3.2.45.3a.506.506,0,0,0,.231.108.373.373,0,0,0,.239-.039.336.336,0,0,0,.092-.076c.024-.029.052-.071.078-.106l.157-.219.314-.438.322-.433.161-.216c.025-.035.057-.075.077-.106a.332.332,0,0,0,.044-.111.376.376,0,0,0-.035-.24.518.518,0,0,0-.172-.187C682.554,335.982,682.412,335.872,682.273,335.757Z" transform="translate(-654.089 -313.942)" fill="#cccbcb"/>
          <g id="Group_2493" data-name="Group 2493" transform="translate(12.909 10.722)">
            <rect id="Rectangle_3761" data-name="Rectangle 3761" width="8.224" height="3.084" rx="1.542" transform="matrix(0.59, -0.808, 0.808, 0.59, 0, 6.641)" fill="#fcd900"/>
            <g id="Group_2491" data-name="Group 2491" transform="translate(1.745 1.704)">
              <path id="Path_5988" data-name="Path 5988" d="M657.662,325.208a.528.528,0,0,1-.461.235l-.015-.222a.376.376,0,0,0,.3-.137c.078-.108.076-.205,0-.263s-.168-.044-.3.03l-.1.06a.43.43,0,0,1-.5.014.384.384,0,0,1-.053-.543.47.47,0,0,1,.367-.208l.038.219a.276.276,0,0,0-.235.115.164.164,0,0,0,.013.234c.072.052.16.04.287-.037l.1-.057a.431.431,0,0,1,.5-.023A.392.392,0,0,1,657.662,325.208Z" transform="translate(-656.443 -320.503)" fill="#211f1f"/>
              <path id="Path_5989" data-name="Path 5989" d="M657.637,322.856l-.208.285-.178-.13.549-.752.178.13-.209.286.929.678-.132.181Z" transform="translate(-656.852 -319.534)" fill="#211f1f"/>
              <path id="Path_5990" data-name="Path 5990" d="M659.035,321.287l1.514.276-.142.2-.33-.065-.338.463.162.295-.141.194Zm.6.671.224-.307-.439-.086Z" transform="translate(-657.755 -319.042)" fill="#211f1f"/>
              <path id="Path_5991" data-name="Path 5991" d="M660.909,319.541l-.077.1.471.344-.132.181-1.106-.808.262-.358a.4.4,0,0,1,.575-.12.381.381,0,0,1,.135.447l.745,0-.159.217Zm-.117-.171c.091-.125.075-.23-.019-.3s-.2-.054-.293.07l-.117.161.312.228Z" transform="translate(-658.277 -317.786)" fill="#211f1f"/>
              <path id="Path_5992" data-name="Path 5992" d="M661.668,317.336l-.208.285-.178-.129.55-.753.178.13-.21.287.929.678-.132.181Z" transform="translate(-658.893 -316.739)" fill="#211f1f"/>
            </g>
          </g>
        </g>
        <ellipse id="Ellipse_144" data-name="Ellipse 144" cx="0.079" cy="0.087" rx="0.079" ry="0.087" transform="matrix(0.59, -0.808, 0.808, 0.59, 1.649, 11.627)" fill="#707078"/>
        <rect id="Rectangle_3762" data-name="Rectangle 3762" width="0.319" height="26.261" transform="matrix(0.59, -0.808, 0.808, 0.59, 1.916, 12.814)" fill="#fff" opacity="0.5"/>
        <rect id="Rectangle_3763" data-name="Rectangle 3763" width="0.121" height="26.261" transform="matrix(0.59, -0.808, 0.808, 0.59, 2.222, 12.394)" fill="#fff" opacity="0.5"/>
      </g>
      <path id="Path_5998" data-name="Path 5998" d="M666.673,342.074s1.3,1.151.489,2.249L666,343.478" transform="translate(-243.6 -165.238)" fill="#cccbcb"/>
      <path id="Path_5999" data-name="Path 5999" d="M660.413,344.44a1.471,1.471,0,0,1-.3-1.878l.007-.011a1.212,1.212,0,0,1,.354-.36l1.283-.865a1.329,1.329,0,0,1,.122-.082h0a1.316,1.316,0,0,1,1.736,1.908c-.023.032-.048.062-.074.091l-.058.063c-.029.025-.836.815-1.068,1.042-.016.017-.033.034-.05.049l-.007.006h0A1.466,1.466,0,0,1,660.413,344.44Z" transform="translate(-240.51 -164.725)" fill="#edb0a3"/>
      <path id="Path_6000" data-name="Path 6000" d="M658.726,337.847s1.878.689,1.121,1.725l-1.229-.9" transform="translate(-239.861 -163.098)" fill="#cccbcb"/>
      <path id="Path_6001" data-name="Path 6001" d="M663.662,342.56a2.275,2.275,0,0,0,.581,1.22.091.091,0,0,1-.036.146c-.25.095-.815.232-1-.358a1.09,1.09,0,0,1,.293-1.06A.091.091,0,0,1,663.662,342.56Z" transform="translate(-242.164 -165.443)" fill="#f3cac2"/>
      <path id="Path_6002" data-name="Path 6002" d="M651.446,338.286a1.489,1.489,0,0,1-.191-1.31.94.94,0,0,1,.646-.7,3.436,3.436,0,0,1,2.938.643,1.387,1.387,0,0,1-1.348,2.4A5.524,5.524,0,0,1,651.446,338.286Z" transform="translate(-236.101 -162.246)" fill="#edb0a3"/>
      <g id="Group_2496" data-name="Group 2496" transform="translate(413.991 171.86)">
        <path id="Path_6003" data-name="Path 6003" d="M650.4,332.231a1.206,1.206,0,0,1,.431,1.366l-1.869-1.365A1.221,1.221,0,0,1,650.4,332.231Z" transform="translate(-648.966 -331.998)" fill="#cccbcb"/>
      </g>
      <path id="Path_6004" data-name="Path 6004" d="M654.964,338.07a2.562,2.562,0,0,0,.083,1.624.1.1,0,0,1-.123.14c-.37-.118-1.038-.423-.974-1.072a1.043,1.043,0,0,1,.824-.9A.165.165,0,0,1,654.964,338.07Z" transform="translate(-237.496 -163.107)" fill="#f3cac2"/>
      <path id="Path_6005" data-name="Path 6005" d="M646.958,334.365a1.3,1.3,0,0,0,1.878-.273,1.48,1.48,0,0,0-.461-2c-.668-.488-1.715-.342-1.936.366A1.509,1.509,0,0,0,646.958,334.365Z" transform="translate(-233.631 -160.042)" fill="#edb0a3"/>
      <path id="Path_6006" data-name="Path 6006" d="M666.384,302.478l2.531,1.1s-.344,1.163-1.383.805S665.732,302.832,666.384,302.478Z" transform="translate(-243.671 -145.192)" fill="#f3cac2"/>
      <g id="Group_2497" data-name="Group 2497" transform="translate(424.168 158.021)">
        <path id="Path_6007" data-name="Path 6007" d="M669.824,303.968l.831.36s-.23.775-.879.865C669.554,304.781,669.458,304.214,669.824,303.968Z" transform="translate(-669.579 -303.968)" fill="#f5d5cd"/>
      </g>
      <g id="Group_2498" data-name="Group 2498" transform="translate(421.003 177.658)">
        <path id="Path_6008" data-name="Path 6008" d="M663.211,344.207a.943.943,0,0,1-.025-.468.831.831,0,0,1,.309.341.785.785,0,0,1,.081.536A.569.569,0,0,1,663.211,344.207Z" transform="translate(-663.168 -343.739)" fill="#f5d5cd"/>
      </g>
      <path id="Path_6009" data-name="Path 6009" d="M771.218,144.871l-.815-3.06c-.1-.358-.533-1.275-.435-1.634.173-.637,2.413-.861,3.132-1.038a3.934,3.934,0,0,1,1.054-.159c5.635.18,10.818-3.386,16.484-3.386,8.355,0,12.462,11.372,12.4,17.155S793,174.531,793,174.531l-9.249,1.221" transform="translate(-296.227 -60.704)" fill="#915d3d"/>
      <path id="Path_6010" data-name="Path 6010" d="M775.567,170.338a.309.309,0,0,1,.1.094C775.836,170.744,775.764,170.65,775.567,170.338Z" transform="translate(-299.069 -78.294)" fill="#915d3d"/>
      <path id="Path_6011" data-name="Path 6011" d="M819.448,687.143l1.593,11.237-4.316,7.1-9.078-1.335-4.02-17Z" transform="translate(-313.275 -339.936)" fill="#fff"/>
      <path id="Path_6012" data-name="Path 6012" d="M801.89,210.337c-2.525-3.054-7.466-12.734-7.8-16.8L779.721,197.1l2.365,18.843,1.673,6.009" transform="translate(-301.172 -90.04)" fill="#edb0a3"/>
      <path id="Path_6013" data-name="Path 6013" d="M799.424,706.464c2.328,9.376,2.427,8.912,2.337,14.886H760.928c0-4.515,2.571-3.754,8.569-6.2a20.8,20.8,0,0,0,7.589-5.021,17.058,17.058,0,0,0,3.086-4.406c.743-1.467,2.274-3.124,3.708-2.453C786.938,704.695,792.976,710.179,799.424,706.464Z" transform="translate(-291.658 -348.021)" fill="#bdbdbd"/>
      <path id="Path_6014" data-name="Path 6014" d="M801.892,384.738,762.5,403.583l.468,10.044,9.662,73.141,8.268,57.359h21.182l-4.3-60.189,2.392-59.887S810.4,405.779,801.892,384.738Z" transform="translate(-292.456 -186.838)" fill="#2b5aa5"/>
      <path id="Path_6015" data-name="Path 6015" d="M764.3,263.064l9.4-30.573,18.065-8.568c6.728,5.748,10.6,9.077,13.695,19.914S812.731,320,812.731,320L762.5,322.167Z" transform="translate(-292.456 -105.422)" fill="#bdbdbd"/>
      <path id="Path_6016" data-name="Path 6016" d="M757.628,173.378l3.7-4.047a2.939,2.939,0,0,0,.73-3.386,2.941,2.941,0,0,1-.126-2.047l2.891-9.514c2.036.7,4.844,3.69,4.919,3.718v5.418l5.6,2.762,1.672,5.269s2.793-4.825,5.234-3.217c4.885,3.217.048,11.865-6.349,9.96l-4.79,10.373-6.285.051c-4,0-3.8-1.57-3.8-2.588s.638-2.459.638-3.482l-1.154-1.215a1.689,1.689,0,0,1,.368-2.12l.158-.16-1-1.211.085-.865a1.224,1.224,0,0,0-.785-1.64l-.982-.117a1.164,1.164,0,0,1-.721-1.942Z" transform="translate(-289.833 -70.217)" fill="#edb0a3"/>
      <path id="Path_6017" data-name="Path 6017" d="M766.261,201.506c.257-.225.3-.587-.031-.509a3.479,3.479,0,0,1-1.972-.083c-1.143-.63-1.483-.568-1.483-.568-.656,1.342.485,1.636.917,2.095A3.8,3.8,0,0,0,766.261,201.506Z" transform="translate(-292.492 -93.485)" fill="#e89684"/>
      <path id="Path_6018" data-name="Path 6018" d="M772.755,198.032a2.447,2.447,0,0,1,.215,2.25" transform="translate(-297.645 -92.314)" fill="none" stroke="#e89684" stroke-miterlimit="10" stroke-width="0.93"/>
      <path id="Path_6019" data-name="Path 6019" d="M762.785,196.118a2.161,2.161,0,0,0,1.813-.1,2.986,2.986,0,0,1-2.909,1.547,1.131,1.131,0,0,0-.859-1.049l-.547-.065h0C761.6,196.448,761.656,195.757,762.785,196.118Z" transform="translate(-291.331 -91.293)" fill="#e89684"/>
      <path id="Path_6020" data-name="Path 6020" d="M765.5,209.73c.289.592-.351,1.472-.815,2.05h0c.051-.2.1-.4.137-.6a1.459,1.459,0,0,0-.373-1.293l-.687-.724C764.818,209.6,765.185,209.078,765.5,209.73Z" transform="translate(-293.094 -97.952)" fill="#e89684"/>
      <ellipse id="Ellipse_145" data-name="Ellipse 145" cx="0.743" cy="1.143" rx="0.743" ry="1.143" transform="matrix(0.93, -0.368, 0.368, 0.93, 474.516, 97.085)" fill="#404040"/>
      <path id="Path_6021" data-name="Path 6021" d="M772.245,179.992a3.693,3.693,0,0,1,1.744,1.4" transform="translate(-297.387 -83.181)" fill="none" stroke="#404040" stroke-miterlimit="10" stroke-width="0.93"/>
      <path id="Path_6022" data-name="Path 6022" d="M773.943,177.394a3.81,3.81,0,0,0-1.646-2.7,3.129,3.129,0,0,0-1.675-.238c-.686.011-1.411-.2-1.948.455a.693.693,0,0,0,.1.815c.845.791,1.949.27,2.833.279.672.007,1.028-.136,1.617.581.256.311.4.818.7.841.01,0,.019-.014.023-.028Z" transform="translate(-295.533 -80.365)" fill="#915d3d"/>
      <path id="Path_6023" data-name="Path 6023" d="M783.649,223.819h-7.686c1.492,0,2.376.519,2.967,2.573l1.253,4.882c2.26-1.818,5.219-3.757,5.392-4.045A2.248,2.248,0,0,0,783.649,223.819Z" transform="translate(-299.27 -105.37)" fill="#e89684"/>
      <path id="Path_6024" data-name="Path 6024" d="M802.815,195a14.542,14.542,0,0,1-3.054,2.758c-.563.379-1.362.706-1.869.254" transform="translate(-310.372 -90.778)" fill="none" stroke="#e89684" stroke-miterlimit="10" stroke-width="0.93"/>
      <path id="Path_6025" data-name="Path 6025" d="M812.019,261.684a40.623,40.623,0,0,1,.869,4.228H775.473l2.07-6.736h33.7C811.507,259.966,811.766,260.8,812.019,261.684Z" transform="translate(-299.021 -123.269)" fill="#fff"/>
      <path id="Path_6026" data-name="Path 6026" d="M784.5,236.522l9.775-4.636h12.747a29.517,29.517,0,0,1,5.495,6.737H783.859Z" transform="translate(-303.267 -109.454)" fill="#fff"/>
      <path id="Path_6027" data-name="Path 6027" d="M810.348,293.2H767.087l2.07-6.737h40.426C809.839,288.537,810.094,290.8,810.348,293.2Z" transform="translate(-294.776 -137.084)" fill="#fff"/>
      <path id="Path_6028" data-name="Path 6028" d="M810.792,320.488H765.4l.2-6.736h44.564C810.381,315.947,810.589,318.2,810.792,320.488Z" transform="translate(-293.923 -150.9)" fill="#fff"/>
      <path id="Path_6029" data-name="Path 6029" d="M811.5,347.777H764.575l.2-6.736h46.173C811.142,343.3,811.325,345.554,811.5,347.777Z" transform="translate(-293.504 -164.715)" fill="#fff"/>
      <path id="Path_6030" data-name="Path 6030" d="M812.109,375.065H763.746l.2-6.736h47.656C811.784,370.667,811.953,372.926,812.109,375.065Z" transform="translate(-293.084 -178.531)" fill="#fff"/>
      <path id="Path_6031" data-name="Path 6031" d="M812.638,402.354h-49.72l.2-6.736h49.051C812.359,398.254,812.515,400.54,812.638,402.354Z" transform="translate(-292.665 -192.346)" fill="#fff"/>
      <path id="Path_6032" data-name="Path 6032" d="M800.054,313.752h18.182l-.343,12.93-21.73,47.083-9.088-6.644,13.491-43.928Z" transform="translate(-304.896 -150.9)" fill="#edb0a3"/>
      <g id="Group_2517" data-name="Group 2517" transform="translate(150.307 76.978)">
        <rect id="Rectangle_3764" data-name="Rectangle 3764" width="10.792" height="4.918" transform="translate(170.159 125.162)"/>
        <rect id="Rectangle_3765" data-name="Rectangle 3765" width="14.759" height="4.922" transform="translate(168.174 126.919)"/>
        <path id="Path_6033" data-name="Path 6033" d="M473.082,366.908l-2.468-.426,4.557-32.274c.184-1.176,2.632-.845,2.475.424Z" transform="translate(-296.669 -237.866)"/>
        <rect id="Rectangle_3766" data-name="Rectangle 3766" width="174.15" height="120.032" transform="translate(16.445 5.131)" fill="#fceb7f"/>
        <rect id="Rectangle_3767" data-name="Rectangle 3767" width="8.958" height="123.8" transform="translate(11.967 5.131)" fill="#ac7e61"/>
        <rect id="Rectangle_3768" data-name="Rectangle 3768" width="8.959" height="123.8" transform="translate(188.188 5.131)" fill="#ac7e61"/>
        <g id="Group_2515" data-name="Group 2515" transform="translate(50.367)">
          <g id="Group_2512" data-name="Group 2512" transform="translate(24.47 59.536)">
            <path id="Path_6034" data-name="Path 6034" d="M269.882,467.958s2.576,30.536,5.823,40.032,17.165,59.484,17.165,59.484l1.855,8.983,22.035-11.036,11.419-81.442.177-16.534Z" transform="translate(-269.882 -365.223)" fill="#33b5b3"/>
            <path id="Path_6035" data-name="Path 6035" d="M319.16,269.723c7.809,0,14.142-3.433,14.205-7.682a49.947,49.947,0,0,0-4.94-1.634l-19.693.4-3.779,1.216c.048,4.257,6.387,7.7,14.207,7.7" transform="translate(-287.637 -260.406)" fill="#d2b7aa"/>
          </g>
          <rect id="Rectangle_3769" data-name="Rectangle 3769" width="19.693" height="15.693" transform="translate(45.565 47.411)" fill="#d2b7aa"/>
          <g id="Group_2513" data-name="Group 2513" transform="translate(36.345)">
            <path id="Path_6036" data-name="Path 6036" d="M313.873,238.706c1.545,1.139,9.962,11.4,18.427,6.685v-12.02l-19.693,1.223Z" transform="translate(-303.387 -187.183)" fill="#c39f90"/>
            <path id="Path_6037" data-name="Path 6037" d="M328.749,173.713c.048-.562.075-1.128.075-1.7,0-14.361-7.087-17.507-15.823-17.507s-15.824,3.146-15.824,17.507c0,.573.025,1.139.076,1.7-.858-.44-3.866-1.747-3.233,2,.739,4.352,1.82,9.529,4.539,9.843l1.756,7.555c.851,3.106,4.988,8.149,12.685,8.149s11.832-5.043,12.684-8.149l1.757-7.555c2.719-.314,3.8-5.491,4.537-9.843.633-3.743-2.374-2.436-3.23-2" transform="translate(-293.934 -147.256)" fill="#d2b7aa"/>
            <path id="Path_6038" data-name="Path 6038" d="M316,199.984l1.291-.442,1.232.091.072.448a1.308,1.308,0,1,1-2.6,0Z" transform="translate(-305.102 -170.057)" fill="#40383d"/>
            <path id="Path_6039" data-name="Path 6039" d="M318.2,199.514a3.1,3.1,0,0,0-2.418-.258c-.578.189-1.09.548-1.68.734-.22.07-.4-.2-.292-.421.907-1.76,3.266-1.3,4.521-.3Z" transform="translate(-303.978 -169.471)" fill="#40383d"/>
            <path id="Path_6040" data-name="Path 6040" d="M308.049,194.337a8.725,8.725,0,0,1,4.36-.154,11.553,11.553,0,0,0,4.155.693.511.511,0,0,0,.224-.923,12.165,12.165,0,0,0-5.159-1.153,4.677,4.677,0,0,0-3.736,1.242Z" transform="translate(-301.001 -166.634)"/>
            <path id="Path_6041" data-name="Path 6041" d="M345.543,199.984l-1.291-.442-1.232.091-.071.448a1.308,1.308,0,1,0,2.6,0Z" transform="translate(-318.749 -170.057)" fill="#40383d"/>
            <path id="Path_6042" data-name="Path 6042" d="M341.35,199.514a3.1,3.1,0,0,1,2.418-.258c.579.189,1.09.548,1.68.734.22.07.4-.2.291-.421-.905-1.76-3.264-1.3-4.519-.3Z" transform="translate(-317.873 -169.471)" fill="#40383d"/>
            <path id="Path_6043" data-name="Path 6043" d="M346.815,194.337a8.719,8.719,0,0,0-4.358-.154,11.562,11.562,0,0,1-4.156.693.512.512,0,0,1-.224-.923,12.171,12.171,0,0,1,5.159-1.153,4.677,4.677,0,0,1,3.736,1.242Z" transform="translate(-316.168 -166.634)"/>
            <path id="Path_6044" data-name="Path 6044" d="M327.6,225.961l-5.056-.906c.166,1.892,3.792,2.749,5.056,2.749s4.889-.857,5.057-2.749Z" transform="translate(-308.418 -182.973)" fill="#fff"/>
            <path id="Path_6045" data-name="Path 6045" d="M327.77,223.774a3.36,3.36,0,0,0-2.124.444.626.626,0,0,1-.683,0,3.37,3.37,0,0,0-2.127-.444,14.917,14.917,0,0,1-4.827-.551s.552,1.811,7.294,1.811,7.294-1.811,7.294-1.811a14.914,14.914,0,0,1-4.827.551" transform="translate(-306.122 -182.046)" fill="#c39f90"/>
            <path id="Path_6046" data-name="Path 6046" d="M330.808,234.589c-.393,0-1.927-.08-1.927-.08a1.99,1.99,0,0,0,3.854,0s-1.534.08-1.927.08" transform="translate(-311.626 -187.76)" fill="#c39f90"/>
            <path id="Path_6047" data-name="Path 6047" d="M303.506,145.99c-.361.262-1.111.845-1.5,1.057.242.137.482.271.726.407a3.3,3.3,0,0,0-1.939,1.819,9.285,9.285,0,0,0-.731,2.764,31.046,31.046,0,0,0-.123,4.757c0,.273.009.546.015.818q.155,5.8.3,11.59l3.981-8.752c-.082-.878-.125-6.391-.181-8.182.092-.055.275.677.461,1.41s.377,1.463.485,1.41c2.334-1.146,6.133-1.751,10.865-1.751,5.617,0,10.4,1.075,12.319,2.59l-.174,4.523L332,169.2q.154-5.792.307-11.59a25.442,25.442,0,0,0-.03-2.669l.018,0a13.518,13.518,0,0,0-.458-4.848c-.536-1.527-1.8-2.863-3.277-2.863l-.783-1.168a15.2,15.2,0,0,0-2.807-3.387,11.908,11.908,0,0,0-1.819-1.274,4.845,4.845,0,0,0-1.631-.753l-.521.728c-1.383-.868-2.885-.974-4.384-1.559-.03.385-.011.142-.042.526,0,0-4.215-.923-7.333.557a12.323,12.323,0,0,0-2.535,1.737l.233.38s-3.2,1.619-3.991,2.678Z" transform="translate(-296.957 -139.823)"/>
            <path id="Path_6048" data-name="Path 6048" d="M332.411,215.687c-.245.352-.585.511-1.465.511-1.932,0-1.667,1.12-3.439,1.12-1.8,0-1.505-1.12-3.437-1.12-.88,0-1.221-.159-1.465-.511-.162-.235-.252-.19-.24-.118a2.46,2.46,0,0,0,1.415,1.75c1.182.668,2.242,1.465,3.728,1.465s2.549-.8,3.729-1.465a2.452,2.452,0,0,0,1.415-1.75c.012-.072-.078-.117-.24.118" transform="translate(-308.327 -178.141)" fill="#c39f90"/>
          </g>
          <path id="Path_6049" data-name="Path 6049" d="M306.794,344.125V308.536l5.535,20.306Zm-67.255-15.283,5.535-20.306V344.8Zm75.353-58.017-25.509-14.808-3.788-4.431-9.661,11.494L265.87,250.766l-3.384,5.251-25.511,14.808L220.32,321.743l9.973,26.825,3.864,2.459,4.455,7.919,6.461-4.236V361.1h61.72V350.63l7.5,6.819,3.419-6.423,3.865-2.459,9.973-25.691Z" transform="translate(-220.32 -195.99)" fill="#fff"/>
          <g id="Group_2514" data-name="Group 2514" transform="translate(19.16 151.507)">
            <path id="Path_6050" data-name="Path 6050" d="M375.446,450.259l-10.058,12.052s.627,2.77,4.381,0l-.522,4.153,10.188,2.3,3.581-10.611,2.891-4.857-7.331-6.616Z" transform="translate(-312.923 -446.684)" fill="#d2b7aa"/>
            <path id="Path_6051" data-name="Path 6051" d="M266.742,454.027l12.933,13.155s-.627,2.539-3.65.578-3.444-3.347-3.444-3.347l2.818,7.733-9.359,2.083-6.915-14.893Z" transform="translate(-259.126 -450.401)" fill="#d2b7aa"/>
          </g>
          <path id="Path_6052" data-name="Path 6052" d="M393.646,343.7V320.212L408.6,359.4l-4.353,7.663L402.116,382.5l-4.036,7.332-6.2-5.654L399.181,364Z" transform="translate(-307.173 -231.148)" fill="#d4d2d4"/>
        </g>
        <rect id="Rectangle_3770" data-name="Rectangle 3770" width="55.242" height="37.93" transform="translate(41.904 85.977)" fill="#262626"/>
        <rect id="Rectangle_3771" data-name="Rectangle 3771" width="46.742" height="9.333" transform="translate(116.383 127.656)" fill="#fff"/>
        <rect id="Rectangle_3772" data-name="Rectangle 3772" width="10.792" height="4.918" transform="translate(170.159 125.162)"/>
        <rect id="Rectangle_3773" data-name="Rectangle 3773" width="14.759" height="4.922" transform="translate(168.174 126.919)"/>
        <path id="Path_6053" data-name="Path 6053" d="M473.082,367.653l-2.468-.426,4.557-32.274,2.474.424Z" transform="translate(-296.669 -238.611)"/>
        <path id="Path_6054" data-name="Path 6054" d="M227.031,150.215h-6.083l-51.188,86.018v9.533Z" transform="translate(-144.356 -145.084)" fill="#fff9db"/>
        <path id="Path_6055" data-name="Path 6055" d="M235.178,150.215H233L169.759,254.576v2.781Z" transform="translate(-144.356 -145.084)" fill="#fff9db"/>
        <rect id="Rectangle_3774" data-name="Rectangle 3774" width="186.165" height="140.654" transform="translate(11.726 132.585)" fill="#060305"/>
        <rect id="Rectangle_3775" data-name="Rectangle 3775" width="186.165" height="26.13" transform="translate(11.726 270.223)" fill="#444445"/>
        <rect id="Rectangle_3776" data-name="Rectangle 3776" width="186.165" height="16.974" transform="translate(11.726 139.915)" fill="#444445"/>
        <g id="Group_2516" data-name="Group 2516" transform="translate(68.785 201.337)">
          <path id="Path_6056" data-name="Path 6056" d="M316.671,547.61l-7.515,30.557H303.7l-5.7-20.256-5.7,20.256H286.9l-7.59-30.557h5.909l4.645,19.337,5.43-19.337h5.469l5.526,19.483,4.546-19.483Zm17.366,0v18.864a6.95,6.95,0,0,1-1.374,4.345,6.327,6.327,0,0,1-8.668,0,6.944,6.944,0,0,1-1.372-4.343V547.611H320.17l-3.5,14.23v4.425a13.335,13.335,0,0,0,3.191,9.228,12.077,12.077,0,0,0,16.936,0,13.336,13.336,0,0,0,3.192-9.228V547.611Z" transform="translate(-268.601 -547.61)" fill="#ffdc04"/>
          <path id="Path_6057" data-name="Path 6057" d="M265.214,578.166l-7.59-30.557h1.937l7.591,30.557Zm7.29,0-7.591-30.557h-1.937l7.59,30.557Z" transform="translate(-257.624 -547.61)" fill="#fff"/>
        </g>
        <rect id="Rectangle_3777" data-name="Rectangle 3777" width="209.615" height="16.108" transform="translate(0 134.931)" fill="#995f37"/>
        <rect id="Rectangle_3778" data-name="Rectangle 3778" width="209.615" height="16.12" transform="translate(0 123.908)" fill="#ac7e61"/>
      </g>
      <g id="Group_2528" data-name="Group 2528" transform="translate(369.726 -20.617)">
        <circle id="Ellipse_146" data-name="Ellipse 146" cx="29.348" cy="29.348" r="29.348" transform="translate(4.316 4.316)" fill="#fff"/>
        <g id="Group_2527" data-name="Group 2527" transform="translate(7.049 7.018)">
          <g id="Group_2518" data-name="Group 2518" transform="translate(25.881)">
            <path id="Path_6058" data-name="Path 6058" d="M625.053,51.234a.749.749,0,0,1-.749-.749V47.347a.749.749,0,1,1,1.5,0v3.137A.75.75,0,0,1,625.053,51.234Z" transform="translate(-624.304 -46.598)" fill="#060305"/>
            <path id="Path_6059" data-name="Path 6059" d="M625.053,149.718a.749.749,0,0,1-.749-.749v-3.137a.749.749,0,0,1,1.5,0v3.137A.749.749,0,0,1,625.053,149.718Z" transform="translate(-624.304 -96.457)" fill="#060305"/>
          </g>
          <g id="Group_2519" data-name="Group 2519" transform="translate(0 25.881)">
            <path id="Path_6060" data-name="Path 6060" d="M575.771,100.515h-3.137a.749.749,0,0,1,0-1.5h3.137a.749.749,0,0,1,0,1.5Z" transform="translate(-571.885 -99.017)" fill="#060305"/>
            <path id="Path_6061" data-name="Path 6061" d="M674.255,100.515h-3.137a.749.749,0,1,1,0-1.5h3.137a.749.749,0,1,1,0,1.5Z" transform="translate(-621.744 -99.017)" fill="#060305"/>
          </g>
          <g id="Group_2526" data-name="Group 2526" transform="translate(3.8 3.797)">
            <g id="Group_2522" data-name="Group 2522" transform="translate(0 0)">
              <g id="Group_2520" data-name="Group 2520" transform="translate(9.473)">
                <path id="Path_6062" data-name="Path 6062" d="M600.207,56.892a.416.416,0,0,1-.361-.208l-1.022-1.771a.416.416,0,0,1,.721-.416l1.022,1.77a.416.416,0,0,1-.36.625Z" transform="translate(-598.768 -54.289)" fill="#484043"/>
                <path id="Path_6063" data-name="Path 6063" d="M650.556,144.1a.416.416,0,0,1-.361-.208l-1.022-1.77a.416.416,0,0,1,.721-.417l1.023,1.771a.416.416,0,0,1-.36.625Z" transform="translate(-624.258 -98.439)" fill="#484043"/>
              </g>
              <g id="Group_2521" data-name="Group 2521" transform="translate(0 9.473)">
                <path id="Path_6064" data-name="Path 6064" d="M580,125.679a.416.416,0,0,1-.209-.777l1.771-1.023a.417.417,0,0,1,.417.721l-1.77,1.023A.42.42,0,0,1,580,125.679Z" transform="translate(-579.581 -98.965)" fill="#484043"/>
                <path id="Path_6065" data-name="Path 6065" d="M667.2,75.331a.416.416,0,0,1-.209-.777l1.771-1.022a.417.417,0,0,1,.417.721l-1.771,1.022A.415.415,0,0,1,667.2,75.331Z" transform="translate(-623.731 -73.476)" fill="#484043"/>
              </g>
            </g>
            <g id="Group_2525" data-name="Group 2525">
              <g id="Group_2523" data-name="Group 2523" transform="translate(0 9.473)">
                <path id="Path_6066" data-name="Path 6066" d="M581.768,75.331a.413.413,0,0,1-.208-.056l-1.771-1.022a.417.417,0,1,1,.417-.721l1.77,1.022a.417.417,0,0,1-.209.777Z" transform="translate(-579.581 -73.476)" fill="#484043"/>
                <path id="Path_6067" data-name="Path 6067" d="M668.974,125.679a.418.418,0,0,1-.208-.055L667,124.6a.417.417,0,1,1,.417-.721l1.771,1.023a.416.416,0,0,1-.209.777Z" transform="translate(-623.731 -98.965)" fill="#484043"/>
              </g>
              <g id="Group_2524" data-name="Group 2524" transform="translate(9.473)">
                <path id="Path_6068" data-name="Path 6068" d="M599.183,144.1a.416.416,0,0,1-.36-.625l1.022-1.771a.417.417,0,0,1,.721.417l-1.022,1.77A.417.417,0,0,1,599.183,144.1Z" transform="translate(-598.768 -98.438)" fill="#484043"/>
                <path id="Path_6069" data-name="Path 6069" d="M649.532,56.892a.416.416,0,0,1-.36-.625l1.022-1.771a.416.416,0,0,1,.721.416l-1.023,1.771A.416.416,0,0,1,649.532,56.892Z" transform="translate(-624.258 -54.289)" fill="#484043"/>
              </g>
            </g>
          </g>
          <path id="Path_6070" data-name="Path 6070" d="M625.748,97.608a2.853,2.853,0,1,1-2.853-2.853A2.853,2.853,0,0,1,625.748,97.608Z" transform="translate(-596.265 -70.978)" fill="#060305"/>
          <path id="Path_6071" data-name="Path 6071" d="M624.542,92.535a1.249,1.249,0,0,1-.721-2.269L634.832,82.5a1.249,1.249,0,0,1,1.44,2.041l-11.011,7.77A1.243,1.243,0,0,1,624.542,92.535Z" transform="translate(-597.911 -64.656)" fill="#060305"/>
          <path id="Path_6072" data-name="Path 6072" d="M623.459,98.629a1.248,1.248,0,0,1,1.706-.456l16.378,9.466a1.249,1.249,0,1,1-1.25,2.162l-16.378-9.466A1.248,1.248,0,0,1,623.459,98.629Z" transform="translate(-597.91 -72.624)" fill="#060305"/>
          <path id="Path_6073" data-name="Path 6073" d="M625.779,98.827a1.664,1.664,0,1,1-1.664-1.664A1.665,1.665,0,0,1,625.779,98.827Z" transform="translate(-597.484 -72.198)" fill="#f19106"/>
          <path id="Path_6074" data-name="Path 6074" d="M592.668,110.181a.5.5,0,0,1-.258-.928l16.116-9.659a.5.5,0,0,1,.514.858l-16.116,9.658A.5.5,0,0,1,592.668,110.181Z" transform="translate(-582.153 -73.392)" fill="#f19106"/>
        </g>
        <path id="Path_6075" data-name="Path 6075" d="M567.47,89.858a33.669,33.669,0,1,1,23.807,9.861A33.449,33.449,0,0,1,567.47,89.858ZM562.5,66.051a28.779,28.779,0,1,0,28.779-28.779A28.811,28.811,0,0,0,562.5,66.051Z" transform="translate(-557.609 -32.383)" fill="#060305"/>
        <path id="Path_6076" data-name="Path 6076" d="M591.294,94.83h-.017a28.779,28.779,0,0,1,0-57.558h.017V32.383h-.017a33.668,33.668,0,1,0,0,67.336h.017Z" transform="translate(-557.609 -32.383)" fill="#484043"/>
      </g>
      <g id="Group_2536" data-name="Group 2536" transform="translate(497.449 23.759)">
        <path id="Path_6085" data-name="Path 6085" d="M1395.931,64.3c1.48-2.367,1.677-9.667-7-10.26-.789-3.65-6.411-8.088-12.034-1.873-4.735-3.946-11.245,1.084-10.456,6.312-8.483,2.663-5.523,12.43,0,13.021-1.085,6.61,6.51,9.963,11.146,6.017,2.072,2.96,9.47,3.551,11.344-2.269C1394.451,77.118,1400.765,71.4,1395.931,64.3Z" transform="translate(-1361.128 -49.058)" fill="#fff"/>
      </g>
      <path id="Path_6086" data-name="Path 6086" d="M1407.332,117.144c2.7,0,4.882,1.432,4.882,3.2s-2.185,3.2-4.882,3.2-4.882-1.432-4.882-3.2S1404.637,117.144,1407.332,117.144Z" transform="translate(-902.25 -60.609)" fill="#fff"/>
      <path id="Path_6087" data-name="Path 6087" d="M1417.3,135.794c1.385,0,2.508.736,2.508,1.644s-1.124,1.644-2.508,1.644-2.509-.736-2.509-1.644S1415.919,135.794,1417.3,135.794Z" transform="translate(-916.906 -69.211)" fill="#fff"/>
      <path id="Path_6090" data-name="Path 6090" d="M9,16.525q2.634-.159,5.268-.311a.594.594,0,0,1,.251.006,2.679,2.679,0,0,0,.994.2c.719.018,1.432.025,2.156-.017a1.347,1.347,0,0,0,1.174-1.42q.022-2.789,0-5.578A1.4,1.4,0,0,0,17.4,7.971q-1.046-.016-2.092,0a4.27,4.27,0,0,0-.623.094c-.517-.615-1.067-1.189-1.523-1.83a18.566,18.566,0,0,1-2.04-4.084A1.116,1.116,0,0,1,11.08,1.8c-.008-.2,0-.392-.006-.587-.029-.523-.2-1.046-.738-1.161a1.576,1.576,0,0,0-.588,0,2.406,2.406,0,0,0-.3.106,1.93,1.93,0,0,0-1.45,1.666,4.777,4.777,0,0,0,.041,1.488c.138.728.383,1.435.566,2.156a7.97,7.97,0,0,1,.119.8c-.218-.042-.361-.071-.5-.1a10.188,10.188,0,0,0-2.987-.188C3.619,6.172,2.952,7.012,3.188,8.6a.579.579,0,0,1-.1.331,1.986,1.986,0,0,0,.024,2.152.64.64,0,0,1,.078.429,2.231,2.231,0,0,0,.55,2.106.465.465,0,0,1,.145.273,2.308,2.308,0,0,0,1.863,2.39,7.989,7.989,0,0,0,1.511.251C7.715,16.571,9,16.525,9,16.525Zm4.859-1.208c-.263.032-.492.075-.722.086-1.7.086-3.4.178-5.1.241a4.729,4.729,0,0,1-2.531-.462,1.152,1.152,0,0,1-.675-1.3.754.754,0,0,0-.295-.794,1.2,1.2,0,0,1-.388-1.511.707.707,0,0,0-.128-.833,1.032,1.032,0,0,1-.019-1.491.687.687,0,0,0,.1-.859.9.9,0,0,1,.524-1.317,2.988,2.988,0,0,1,.779-.188,8.89,8.89,0,0,1,3.053.275c.321.076.661.128.88-.163a1.079,1.079,0,0,0,.25-.7c-.111-.793-.3-1.574-.447-2.362a11.939,11.939,0,0,1-.266-1.8A1.1,1.1,0,0,1,10.113,1a1.6,1.6,0,0,1,.056.49,2.615,2.615,0,0,0,.325,1.581c.212.494.417.991.651,1.474a10.311,10.311,0,0,0,1.85,2.931,2.648,2.648,0,0,1,.894,2.154C13.8,11.512,13.862,13.4,13.862,15.316Zm.933-3.092c0-.905,0-1.81,0-2.715,0-.45.181-.629.617-.633q.954-.008,1.908,0c.4,0,.588.186.588.581q.006,2.734,0,5.468c0,.421-.178.593-.609.6-.612.007-1.223.006-1.835,0-.508,0-.669-.173-.671-.694C14.794,13.961,14.8,13.092,14.8,12.224Z" transform="translate(505.522 30.765)"/>
    </g>
  </g>
</svg>
